<svg xmlns="http://www.w3.org/2000/svg" version="1.1" xmlns:xlink="http://www.w3.org/1999/xlink" xmlns:svgjs="http://svgjs.com/svgjs" width="1920" height="1080" preserveAspectRatio="none" viewBox="0 0 1920 1080"><g mask="url(&quot;#SvgjsMask1390&quot;)" fill="none"><rect width="1920" height="1080" x="0" y="0" fill="url(#SvgjsLinearGradient1391)"></rect><path d="M1920 0L1255.94 0L1920 145.01z" fill="rgba(255, 255, 255, .1)"></path><path d="M1255.94 0L1920 145.01L1920 394.59000000000003L579.22 0z" fill="rgba(255, 255, 255, .075)"></path><path d="M579.22 0L1920 394.59000000000003L1920 483.99L442.72 0z" fill="rgba(255, 255, 255, .05)"></path><path d="M442.72 0L1920 483.99L1920 618.59L279.82000000000005 0z" fill="rgba(255, 255, 255, .025)"></path><path d="M0 1080L614.34 1080L0 848.44z" fill="rgba(0, 0, 0, .1)"></path><path d="M0 848.44L614.34 1080L1318.8200000000002 1080L0 755.1800000000001z" fill="rgba(0, 0, 0, .075)"></path><path d="M0 755.1800000000001L1318.8200000000002 1080L1504.2300000000002 1080L0 558.6100000000001z" fill="rgba(0, 0, 0, .05)"></path><path d="M0 558.61L1504.2300000000002 1080L1656.7400000000002 1080L0 456.42z" fill="rgba(0, 0, 0, .025)"></path></g><defs><mask id="SvgjsMask1390"><rect width="1920" height="1080" fill="#ffffff"></rect></mask><linearGradient x1="10.94%" y1="-19.44%" x2="89.06%" y2="119.44%" gradientUnits="userSpaceOnUse" id="SvgjsLinearGradient1391"><stop stop-color="rgba(129, 1, 156, 1)" offset="0"></stop><stop stop-color="rgba(0, 69, 158, 1)" offset="0.91"></stop></linearGradient></defs></svg>